<svg width="13" height="15" viewBox="0 0 13 16" fill="none" xmlns="http://www.w3.org/2000/svg">
<path fill-rule="evenodd" clip-rule="evenodd" stroke="#2C2C2C" d="M2.08987 0.241379C2.19864 0.0894275 2.36935 0 2.55063 0H10.4494C10.6307 0 10.8014 0.0894275 10.9101 0.241379L12.8848 3C12.9596 3.10445 13 3.2315 13 3.36207V13.0172C13 13.5431 12.8006 14.0474 12.4457 14.4193C12.0908 14.7911 11.6095 15 11.1076 15H1.89241C1.39051 15 0.909167 14.7911 0.554273 14.4193C0.199378 14.0474 0 13.5431 0 13.0172V3.36207C0 3.2315 0.0404189 3.10445 0.11519 3L2.08987 0.241379ZM2.83861 1.2069L1.1519 3.56322V13.0172C1.1519 13.223 1.22992 13.4204 1.36879 13.5659C1.50766 13.7114 1.69601 13.7931 1.89241 13.7931H11.1076C11.304 13.7931 11.4923 13.7114 11.6312 13.5659C11.7701 13.4204 11.8481 13.223 11.8481 13.0172V3.56322L10.1614 1.2069H2.83861Z" fill="#2C2C2C"/>
<path fill-rule="evenodd" clip-rule="evenodd"  stroke="#2C2C2C" d="M0 3.36207C0 3.02879 0.257861 2.75862 0.575949 2.75862H12.4241C12.7421 2.75862 13 3.02879 13 3.36207C13 3.69534 12.7421 3.96552 12.4241 3.96552H0.575949C0.257861 3.96552 0 3.69534 0 3.36207Z" fill="#2C2C2C"/>
<path fill-rule="evenodd" clip-rule="evenodd"  stroke="#2C2C2C" d="M3.86709 5.51724C4.18518 5.51724 4.44304 5.78741 4.44304 6.12069C4.44304 6.69228 4.65975 7.24045 5.04551 7.64463C5.43126 8.0488 5.95446 8.27586 6.5 8.27586C7.04554 8.27586 7.56874 8.0488 7.95449 7.64463C8.34025 7.24045 8.55696 6.69228 8.55696 6.12069C8.55696 5.78741 8.81482 5.51724 9.13291 5.51724C9.451 5.51724 9.70886 5.78741 9.70886 6.12069C9.70886 7.01237 9.37079 7.86752 8.76901 8.49803C8.16723 9.12854 7.35104 9.48276 6.5 9.48276C5.64896 9.48276 4.83277 9.12854 4.23099 8.49803C3.62921 7.86752 3.29114 7.01237 3.29114 6.12069C3.29114 5.78741 3.549 5.51724 3.86709 5.51724Z" fill="#2C2C2C"/>
</svg>
