<svg width="14" height="14" viewBox="0 0 14 14" fill="none" xmlns="http://www.w3.org/2000/svg">
<path fill-rule="evenodd" clip-rule="evenodd" d="M2.33317 1.58341C2.13426 1.58341 1.94349 1.66243 1.80284 1.80308C1.66219 1.94374 1.58317 2.1345 1.58317 2.33341V11.6667C1.58317 11.8657 1.66219 12.0564 1.80284 12.1971C1.94349 12.3377 2.13426 12.4167 2.33317 12.4167H4.99984C5.322 12.4167 5.58317 12.6779 5.58317 13.0001C5.58317 13.3222 5.322 13.5834 4.99984 13.5834H2.33317C1.82484 13.5834 1.33733 13.3815 0.977882 13.022C0.618438 12.6626 0.416504 12.1751 0.416504 11.6667V2.33341C0.416504 1.82508 0.618438 1.33757 0.977882 0.978127C1.33733 0.618682 1.82484 0.416748 2.33317 0.416748H4.99984C5.322 0.416748 5.58317 0.677915 5.58317 1.00008C5.58317 1.32225 5.322 1.58341 4.99984 1.58341H2.33317Z" fill="#2C2C2C"/>
<path fill-rule="evenodd" clip-rule="evenodd" d="M9.25402 3.25427C9.48183 3.02646 9.85118 3.02646 10.079 3.25427L13.4123 6.5876C13.6401 6.81541 13.6401 7.18475 13.4123 7.41256L10.079 10.7459C9.85118 10.9737 9.48183 10.9737 9.25402 10.7459C9.02622 10.5181 9.02622 10.1487 9.25402 9.92094L12.1749 7.00008L9.25402 4.07923C9.02622 3.85142 9.02622 3.48207 9.25402 3.25427Z" fill="#2C2C2C"/>
<path fill-rule="evenodd" clip-rule="evenodd" d="M4.4165 7.00008C4.4165 6.67791 4.67767 6.41675 4.99984 6.41675H12.9998C13.322 6.41675 13.5832 6.67791 13.5832 7.00008C13.5832 7.32225 13.322 7.58341 12.9998 7.58341H4.99984C4.67767 7.58341 4.4165 7.32225 4.4165 7.00008Z" fill="#2C2C2C"/>
</svg>
