<svg width="44" height="38" viewBox="0 0 44 40" fill="none" xmlns="http://www.w3.org/2000/svg">
<path stroke="#98B0A9" stroke-width="3" d="M40 0H16C13.8 0 12 1.8 12 4V8C5.4 8 0 13.4 0 20V32H4C4 35.314 6.686 38 10 38C13.314 38 16 35.314 16 32H24C24 35.314 26.686 38 30 38C33.314 38 36 35.314 36 32H40C42.2 32 44 30.2 44 28V4C44 1.8 42.2 0 40 0ZM42 28C42 29.103 41.103 30 40 30H35.651C34.826 27.671 32.611 26 30 26C27.389 26 25.173 27.671 24.349 30H16C15.876 30 15.756 29.985 15.638 29.963C15.298 29.022 14.731 28.192 14 27.536V4C14 2.897 14.897 2 16 2H40C41.103 2 42 2.897 42 4V28ZM34 32C34 34.206 32.206 36 30 36C27.794 36 26 34.206 26 32C26 29.794 27.794 28 30 28C32.206 28 34 29.794 34 32ZM14 32C14 34.206 12.206 36 10 36C7.794 36 6 34.206 6 32C6 29.794 7.794 28 10 28C12.206 28 14 29.794 14 32ZM12 10V19H2.051C2.554 13.954 6.824 10 12 10ZM2 30V21H12V26.349C11.374 26.127 10.702 26 10 26C7.389 26 5.173 27.671 4.349 30H2Z" fill="#ffffff"/>
</svg>
