<svg width="22" height="22" viewBox="0 0 22 22" fill="none" xmlns="http://www.w3.org/2000/svg">
<g clip-path="url(#clip0_242_1323)">
<path fill-rule="evenodd" clip-rule="evenodd" d="M10.9997 7.44808C8.99836 7.44808 7.44759 8.99885 7.44759 11.0002C7.44759 13.0015 8.99836 14.5522 10.9997 14.5522C13.001 14.5522 14.5518 13.0015 14.5518 11.0002C14.5518 8.99885 13.001 7.44808 10.9997 7.44808ZM9.05176 11.0002C9.05176 9.88481 9.88432 9.05225 10.9997 9.05225C12.115 9.05225 12.9476 9.88481 12.9476 11.0002C12.9476 12.1155 12.115 12.9481 10.9997 12.9481C9.88432 12.9481 9.05176 12.1155 9.05176 11.0002Z" fill="#2C2C2C"/>
<path fill-rule="evenodd" clip-rule="evenodd" d="M0.899188 12.9423C1.41147 13.4546 2.07191 13.7273 2.74967 13.7273C2.83676 13.7273 2.95955 13.7541 3.12975 13.8675C3.23617 13.9385 3.28973 13.9866 3.31893 14.0195C3.3424 14.0459 3.35411 14.0665 3.36375 14.0955C3.40269 14.2123 3.43204 14.3212 3.44524 14.4136C3.45415 14.476 3.45219 14.5074 3.4517 14.5153L3.45162 14.5166C3.42687 14.5948 3.41426 14.6764 3.41426 14.7585C3.41426 14.8374 3.37839 14.9205 3.28247 15.0164L3.25443 15.0444C3.02957 15.2028 2.90249 15.4123 2.83916 15.5262C2.79487 15.606 2.75858 15.6836 2.73269 15.7399L2.71036 15.7887C2.69447 15.8235 2.68471 15.8449 2.67393 15.8665C2.65696 15.9004 2.64242 15.9355 2.63042 15.9715C2.62145 15.9984 2.60965 16.0305 2.59614 16.0672C2.52481 16.261 2.40592 16.5839 2.40592 16.9585C2.40592 17.3931 2.54472 17.7921 2.67393 18.0505L2.68221 18.0671C2.76596 18.2348 2.88995 18.4832 3.11979 18.7347C3.27894 18.9662 3.4933 19.0963 3.60909 19.1607C3.68881 19.205 3.7664 19.2413 3.82273 19.2671L3.87159 19.2895C3.90637 19.3054 3.92777 19.3151 3.9493 19.3259C3.98325 19.3429 4.01836 19.3574 4.05436 19.3694C4.08125 19.3784 4.11328 19.3902 4.14993 19.4037C4.34374 19.475 4.66679 19.5939 5.04134 19.5939C5.47592 19.5939 5.87496 19.4551 6.13338 19.3259L6.14995 19.3176C6.33421 19.2256 6.61575 19.0851 6.89183 18.809L6.92094 18.7799C7.06938 18.6913 7.22848 18.6336 7.45948 18.5563C7.51664 18.5447 7.56285 18.5458 7.61207 18.5533C7.68331 18.5643 7.75779 18.5872 7.90436 18.6361C8.03618 18.68 8.15378 18.7648 8.22396 18.8701C8.24823 18.9065 8.27542 18.9408 8.30527 18.9728C8.31152 18.985 8.32106 19.007 8.33098 19.0392C8.35348 19.1123 8.36426 19.1932 8.36426 19.2502V19.3418C8.36426 20.0196 8.63691 20.68 9.14919 21.1923C9.66147 21.7046 10.3219 21.9773 10.9997 21.9773C11.6774 21.9773 12.3379 21.7046 12.8502 21.1923C13.3624 20.68 13.6351 20.0196 13.6351 19.3418V19.1585C13.6351 19.0714 13.6619 18.9486 13.7754 18.7784C13.8463 18.672 13.8945 18.6184 13.9273 18.5892C13.9537 18.5658 13.9744 18.5541 14.0033 18.5444C14.1201 18.5055 14.2291 18.4761 14.3214 18.4629C14.3877 18.4535 14.419 18.4563 14.4244 18.4566C14.5026 18.4813 14.5842 18.4939 14.6663 18.4939C14.7453 18.4939 14.8283 18.5297 14.9242 18.6257L14.9522 18.6537C15.1106 18.8786 15.3201 19.0057 15.4341 19.069C15.5138 19.1133 15.5914 19.1496 15.6478 19.1755L15.6966 19.1978C15.7314 19.2137 15.7528 19.2235 15.7743 19.2342C15.8083 19.2512 15.8434 19.2657 15.8794 19.2777C15.9063 19.2867 15.9383 19.2985 15.975 19.312C16.1688 19.3834 16.4918 19.5022 16.8663 19.5022C17.3009 19.5022 17.7 19.3634 17.9584 19.2342L17.975 19.2259C18.1427 19.1422 18.3911 19.0182 18.6425 18.7884C18.8741 18.6292 19.0042 18.4148 19.0685 18.2991C19.1128 18.2193 19.1491 18.1417 19.175 18.0854L19.1973 18.0366C19.2132 18.0018 19.223 17.9804 19.2337 17.9589C19.2507 17.9249 19.2653 17.8898 19.2773 17.8538C19.2862 17.8269 19.298 17.7948 19.3115 17.7582C19.3829 17.5644 19.5018 17.2414 19.5018 16.8668C19.5018 16.4322 19.3629 16.0332 19.2337 15.7748L19.2254 15.7581C19.1335 15.5739 18.9929 15.2924 18.7168 15.0163L18.6877 14.9872C18.5992 14.8388 18.5415 14.6797 18.4641 14.4487C18.4525 14.3915 18.4536 14.3453 18.4612 14.2961C18.4716 14.2281 18.493 14.1572 18.5374 14.0235C18.5626 14.0139 18.6056 14.0003 18.6736 13.9867C18.7764 13.9661 18.8741 13.9256 18.9613 13.8675C19.1315 13.7541 19.2543 13.7273 19.3413 13.7273H19.433C20.1108 13.7273 20.7712 13.4546 21.2835 12.9423C21.7958 12.43 22.0684 11.7696 22.0684 11.0918C22.0684 10.4141 21.7958 9.75363 21.2835 9.24133C20.7712 8.72904 20.1107 8.45642 19.433 8.45642H19.2497C19.1626 8.45642 19.0398 8.42961 18.8696 8.31613C18.7632 8.24518 18.7096 8.19702 18.6804 8.16416C18.677 8.1603 18.6738 8.15656 18.6708 8.1529C18.6644 8.09981 18.6526 8.04742 18.6356 7.99652C18.5967 7.87971 18.5673 7.77076 18.5541 7.67839C18.5452 7.61605 18.5472 7.58465 18.5476 7.57666L18.5477 7.57544C18.5725 7.4972 18.5851 7.4156 18.5851 7.3335C18.5851 7.2546 18.621 7.17154 18.7169 7.07562L18.7449 7.04757C18.9698 6.88924 19.0969 6.67972 19.1602 6.56573C19.2045 6.48601 19.2408 6.40842 19.2667 6.35209L19.289 6.30326C19.3049 6.26851 19.3147 6.24705 19.3254 6.22553C19.3424 6.19158 19.3569 6.15647 19.3689 6.12046C19.3779 6.09358 19.3897 6.06155 19.4032 6.02489C19.4745 5.83109 19.5934 5.50805 19.5934 5.1335C19.5934 4.69892 19.4546 4.29988 19.3254 4.04146L19.3171 4.02487C19.2334 3.85714 19.1094 3.60879 18.8796 3.35733C18.7204 3.12575 18.506 2.99564 18.3902 2.93131C18.3105 2.88702 18.2329 2.85073 18.1766 2.82484L18.1278 2.80253C18.093 2.78664 18.0716 2.77687 18.05 2.76609C18.0161 2.74912 17.981 2.73458 17.945 2.72258C17.9181 2.71361 17.886 2.70181 17.8493 2.68831C17.6555 2.61697 17.3326 2.49808 16.958 2.49808C16.5234 2.49808 16.1244 2.63689 15.866 2.76609L15.8493 2.7744C15.6651 2.86638 15.3836 3.00694 15.1075 3.283L15.0784 3.31214C14.93 3.40067 14.7709 3.45835 14.5399 3.53571C14.4827 3.5473 14.4365 3.54623 14.3873 3.53866C14.316 3.5277 14.2415 3.50476 14.095 3.45591C14.066 3.44627 14.0454 3.43456 14.019 3.41109C13.9861 3.38189 13.938 3.32833 13.867 3.22191C13.7536 3.05171 13.7268 2.92892 13.7268 2.84183V2.75016C13.7268 2.0724 13.4541 1.41196 12.9418 0.899676C12.4296 0.387396 11.7691 0.114746 11.0913 0.114746C10.4136 0.114746 9.75313 0.387392 9.24085 0.899676C8.72855 1.41197 8.45593 2.07242 8.45593 2.75016V2.84183C8.45593 2.92889 8.42912 3.05168 8.31564 3.22191C8.24469 3.32834 8.19653 3.3819 8.16367 3.4111C8.15981 3.41453 8.15608 3.41771 8.15242 3.42067C8.09933 3.42716 8.04693 3.43895 7.99603 3.45591C7.87924 3.49484 7.77029 3.5242 7.67792 3.53739C7.61557 3.5463 7.58416 3.54434 7.57618 3.54385L7.57496 3.54377C7.49672 3.51902 7.41512 3.50641 7.33301 3.50641C7.25409 3.50641 7.17108 3.47058 7.07517 3.37467L7.0471 3.3466C6.88876 3.12171 6.67922 2.99463 6.56523 2.9313C6.48551 2.88701 6.40792 2.85072 6.35159 2.82484L6.30281 2.80253C6.268 2.78664 6.24658 2.77686 6.22504 2.76609C6.19109 2.74912 6.15598 2.73458 6.11998 2.72258C6.09308 2.71361 6.06103 2.70181 6.02435 2.68831C5.83055 2.61697 5.50756 2.49808 5.13301 2.49808C4.69843 2.49808 4.29939 2.63689 4.04097 2.76609L4.02431 2.77442C3.85662 2.85814 3.60827 2.98213 3.35684 3.21194C3.12525 3.3711 2.99514 3.58548 2.93081 3.70127C2.88653 3.78099 2.85023 3.85858 2.82435 3.91491L2.80204 3.96368C2.78616 3.99849 2.77637 4.01992 2.76561 4.04146C2.74863 4.07541 2.73409 4.11052 2.72209 4.14652C2.71312 4.17342 2.70132 4.20547 2.68782 4.24215C2.61649 4.43596 2.4976 4.75895 2.4976 5.1335C2.4976 5.56809 2.6364 5.96712 2.76561 6.22553L2.77393 6.2422C2.8659 6.42641 3.00646 6.70794 3.28251 6.98399L3.31165 7.01313C3.40018 7.16155 3.45787 7.32064 3.53523 7.55164C3.54681 7.60881 3.54574 7.65503 3.53817 7.70425C3.52721 7.77548 3.50428 7.84997 3.45542 7.99652C3.41148 8.12835 3.32669 8.24595 3.22143 8.31613C3.18503 8.34039 3.15068 8.36759 3.11874 8.39743C3.10652 8.40368 3.08454 8.41323 3.05233 8.42314C2.97921 8.44564 2.89828 8.45642 2.84135 8.45642H2.74967C2.07193 8.45642 1.41148 8.72904 0.899188 9.24133C0.386903 9.75362 0.114258 10.4141 0.114258 11.0918C0.114258 11.7696 0.386908 12.43 0.899188 12.9423ZM10.3752 2.03399C10.5962 1.81294 10.8524 1.71891 11.0913 1.71891C11.3303 1.71891 11.5865 1.81294 11.8075 2.03399C12.0286 2.25505 12.1226 2.51126 12.1226 2.75016V2.84183C12.1226 3.30475 12.2791 3.73195 12.5323 4.11175C12.7629 4.45768 13.0724 4.806 13.5877 4.97776L13.6135 4.98636C13.8924 5.07971 14.3576 5.23537 14.9525 5.08663C14.9725 5.08165 14.9922 5.07591 15.0117 5.06942L15.0353 5.06155C15.3007 4.97318 15.6627 4.85266 16.0279 4.60921C16.0719 4.57991 16.1128 4.54634 16.1502 4.50899L16.2418 4.41732C16.324 4.33516 16.4003 4.29242 16.5834 4.2009C16.63 4.17761 16.6952 4.15114 16.768 4.13128C16.8414 4.11125 16.9068 4.10225 16.958 4.10225C16.9978 4.10225 17.033 4.10734 17.0942 4.12572C17.13 4.13645 17.1704 4.15037 17.2296 4.17154L17.2569 4.18129C17.2946 4.19481 17.339 4.2107 17.3865 4.22706C17.4011 4.234 17.4151 4.2405 17.4281 4.24646L17.5069 4.28252C17.5458 4.30038 17.5734 4.31362 17.5947 4.32477C17.6188 4.35753 17.6453 4.38848 17.6742 4.41732C17.7563 4.49948 17.7991 4.57585 17.8906 4.75887C17.9139 4.80545 17.9404 4.87069 17.9602 4.9435C17.9803 5.01693 17.9893 5.0823 17.9893 5.1335C17.9893 5.17334 17.9842 5.20844 17.9658 5.26968C17.9551 5.30547 17.9411 5.34585 17.92 5.40513L17.9102 5.43245C17.8967 5.47015 17.8808 5.51446 17.8645 5.56195C17.8575 5.5766 17.851 5.5906 17.845 5.60354L17.809 5.68234C17.7911 5.72123 17.7779 5.74884 17.7667 5.77023C17.7339 5.7943 17.703 5.82086 17.6741 5.84971L17.5825 5.94134C17.3287 6.19513 17.0221 6.62133 16.9847 7.21272C16.925 7.47058 16.9393 7.71762 16.9661 7.90527C16.9906 8.07708 17.0319 8.23951 17.0734 8.37678C17.0766 8.45115 17.0902 8.52475 17.1138 8.59548C17.2855 9.11075 17.6338 9.42026 17.9798 9.65087C18.3595 9.90405 18.7867 10.0606 19.2497 10.0606H19.433C19.6719 10.0606 19.9282 10.1546 20.1492 10.3757C20.3702 10.5967 20.4643 10.8529 20.4643 11.0918C20.4643 11.3308 20.3702 11.587 20.1492 11.808C19.9281 12.0291 19.6719 12.1231 19.433 12.1231H19.3413C18.9321 12.1231 18.5507 12.2454 18.2053 12.4488C17.9565 12.5132 17.7178 12.6148 17.5111 12.7801C17.249 12.9897 17.1047 13.2486 17.0221 13.4965L17.0135 13.5223C16.9201 13.8012 16.7645 14.2664 16.9132 14.8614C16.9182 14.8813 16.9239 14.901 16.9304 14.9205L16.9383 14.9441C17.0267 15.2095 17.1472 15.5716 17.3906 15.9367C17.4199 15.9807 17.4535 16.0216 17.4908 16.059L17.5825 16.1507C17.6647 16.2328 17.7074 16.3091 17.7989 16.4922C17.8222 16.5388 17.8487 16.604 17.8686 16.6768C17.8886 16.7503 17.8976 16.8156 17.8976 16.8668C17.8976 16.9067 17.8925 16.9418 17.8741 17.003C17.8634 17.0388 17.8495 17.0792 17.8283 17.1385L17.8185 17.1658C17.805 17.2035 17.7891 17.2478 17.7728 17.2953C17.7658 17.3099 17.7593 17.3239 17.7534 17.3369L17.7173 17.4157C17.6994 17.4546 17.6862 17.4822 17.6751 17.5036C17.6423 17.5276 17.6114 17.5542 17.5825 17.583C17.5004 17.6652 17.424 17.7079 17.241 17.7994C17.1944 17.8227 17.1291 17.8492 17.0563 17.869C16.9829 17.8891 16.9175 17.8981 16.8663 17.8981C16.8265 17.8981 16.7914 17.893 16.7302 17.8746C16.6944 17.8639 16.654 17.85 16.5947 17.8288L16.5673 17.819C16.5297 17.8055 16.4853 17.7896 16.4379 17.7733C16.4232 17.7663 16.4092 17.7598 16.3963 17.7539L16.3175 17.7178C16.2786 17.6999 16.251 17.6867 16.2296 17.6755C16.2055 17.6428 16.179 17.6118 16.1502 17.583L16.0585 17.4913C15.8047 17.2375 15.3785 16.931 14.7871 16.8935C14.5293 16.8339 14.2822 16.8481 14.0946 16.8749C13.8661 16.9075 13.6542 16.9698 13.496 17.0226C12.9808 17.1943 12.6712 17.5427 12.4406 17.8886C12.1875 18.2683 12.0309 18.6955 12.0309 19.1585V19.3418C12.0309 19.5807 11.9369 19.837 11.7158 20.058C11.4948 20.2791 11.2386 20.3731 10.9997 20.3731C10.7608 20.3731 10.5046 20.2791 10.2835 20.058C10.0625 19.837 9.96842 19.5807 9.96842 19.3418V19.2502C9.96842 19.0321 9.93337 18.7922 9.8642 18.5674C9.80472 18.3741 9.7011 18.1301 9.5185 17.9221C9.22392 17.5108 8.81128 17.2475 8.41164 17.1142L8.38586 17.1056C8.10692 17.0123 7.64174 16.8566 7.0468 17.0054C7.02689 17.0103 7.00717 17.0161 6.98769 17.0226L6.96416 17.0304C6.69867 17.1188 6.33664 17.2393 5.97143 17.4828C5.92749 17.5121 5.88656 17.5456 5.84923 17.583L5.75751 17.6747C5.67534 17.7568 5.59897 17.7996 5.41597 17.8911C5.36939 17.9144 5.30415 17.9409 5.23135 17.9607C5.15791 17.9807 5.09254 17.9897 5.04134 17.9897C5.0015 17.9897 4.96639 17.9847 4.90514 17.9663C4.86935 17.9555 4.82897 17.9416 4.7697 17.9205L4.74241 17.9107C4.70476 17.8972 4.66026 17.8812 4.61287 17.8649C4.59823 17.858 4.58423 17.8515 4.5713 17.8455L4.4925 17.8095C4.45361 17.7916 4.426 17.7784 4.40461 17.7672C4.38056 17.7345 4.35401 17.7035 4.32517 17.6747C4.243 17.5925 4.20024 17.5161 4.10874 17.3331C4.08545 17.2865 4.05898 17.2213 4.03912 17.1485C4.01909 17.0751 4.01009 17.0097 4.01009 16.9585C4.01009 16.9187 4.01518 16.8835 4.03356 16.8223C4.04429 16.7865 4.05821 16.7461 4.07938 16.6869L4.08913 16.6596C4.10265 16.6219 4.11854 16.5775 4.1349 16.53L4.1543 16.4884L4.19035 16.4097C4.20822 16.3708 4.22146 16.3432 4.23261 16.3218C4.26539 16.2977 4.29636 16.2711 4.32522 16.2423L4.41683 16.1507C4.67061 15.8969 4.97722 15.4707 5.01463 14.8793C5.07431 14.6214 5.06009 14.3744 5.03328 14.1867C5.00064 13.9583 4.93833 13.7464 4.8856 13.5882C4.71384 13.0729 4.36552 12.7634 4.01958 12.5328C3.63979 12.2796 3.21259 12.1231 2.74967 12.1231C2.51077 12.1231 2.25456 12.0291 2.03351 11.808C1.81245 11.587 1.71842 11.3307 1.71842 11.0918C1.71842 10.8529 1.81246 10.5967 2.03351 10.3757C2.25455 10.1546 2.51075 10.0606 2.74967 10.0606H2.84135C3.05941 10.0606 3.29931 10.0255 3.52411 9.95636C3.7174 9.89689 3.96142 9.79327 4.16944 9.61066C4.5807 9.31608 4.84406 8.90344 4.97727 8.5038L4.98588 8.47805C5.07922 8.1991 5.23488 7.73391 5.08614 7.13896C5.08116 7.11905 5.07542 7.09933 5.06893 7.07985L5.06106 7.05623C4.97269 6.79078 4.85217 6.42876 4.60872 6.06359C4.57942 6.01964 4.54585 5.97869 4.5085 5.94134L4.41683 5.84967C4.33468 5.76752 4.29194 5.69118 4.20042 5.50812C4.17712 5.46153 4.15065 5.39629 4.13079 5.3235C4.11077 5.25007 4.10176 5.1847 4.10176 5.1335C4.10176 5.09366 4.10685 5.05855 4.12523 4.9973C4.13597 4.96151 4.14988 4.92113 4.17105 4.86186L4.1808 4.83461C4.19432 4.79691 4.21023 4.75252 4.22657 4.70503L4.24598 4.66344L4.28203 4.58463C4.2999 4.54575 4.31314 4.51814 4.32428 4.49675C4.35705 4.4727 4.388 4.44615 4.41683 4.41732C4.49898 4.33516 4.57532 4.29243 4.75838 4.2009C4.80496 4.17761 4.8702 4.15114 4.94301 4.13128C5.01644 4.11125 5.08181 4.10225 5.13301 4.10225C5.17285 4.10225 5.20795 4.10734 5.2692 4.12571C5.30499 4.13645 5.34536 4.15037 5.40464 4.17154L5.4319 4.1813C5.46959 4.1948 5.514 4.21072 5.56147 4.22706C5.57612 4.234 5.59012 4.2405 5.60306 4.24647L5.68187 4.28252C5.72075 4.30039 5.74836 4.31362 5.76975 4.32477C5.7938 4.35754 5.82035 4.38848 5.84918 4.41732L5.94085 4.50899C6.19466 4.76279 6.62086 5.06936 7.21223 5.10678C7.47008 5.16645 7.71711 5.15224 7.90476 5.12544C8.07657 5.1009 8.23901 5.05957 8.37628 5.01816C8.45065 5.01491 8.52426 5.00133 8.59499 4.97776C9.11026 4.806 9.41977 4.45766 9.65038 4.11175C9.90356 3.73197 10.0601 3.30478 10.0601 2.84183V2.75016C10.0601 2.51124 10.1541 2.25504 10.3752 2.03399Z" fill="#2C2C2C"/>
</g>
<defs>
<clipPath id="clip0_242_1323">
<rect width="22" height="22" fill="white"/>
</clipPath>
</defs>
</svg>
