<svg width="22" height="20" viewBox="0 0 22 20" fill="none" xmlns="http://www.w3.org/2000/svg">
<path fill-rule="evenodd" clip-rule="evenodd" d="M21.083 1.86469C21.526 1.86469 21.8851 2.2238 21.8851 2.66678V8.16678C21.8851 8.60976 21.526 8.96886 21.083 8.96886H15.583C15.14 8.96886 14.7809 8.60976 14.7809 8.16678C14.7809 7.7238 15.14 7.36469 15.583 7.36469H20.2809V2.66678C20.2809 2.2238 20.64 1.86469 21.083 1.86469Z" fill="#2C2C2C"/>
<path fill-rule="evenodd" clip-rule="evenodd" d="M0.11426 11.8334C0.11426 11.3905 0.473365 11.0314 0.916344 11.0314H6.41634C6.85932 11.0314 7.21843 11.3905 7.21843 11.8334C7.21843 12.2764 6.85932 12.6355 6.41634 12.6355H1.71843V17.3334C1.71843 17.7764 1.35932 18.1355 0.916344 18.1355C0.473365 18.1355 0.11426 17.7764 0.11426 17.3334V11.8334Z" fill="#2C2C2C"/>
<path fill-rule="evenodd" clip-rule="evenodd" d="M13.0641 2.84765C11.8555 2.49807 10.578 2.46034 9.35095 2.73799C8.12384 3.01564 6.98707 3.59961 6.0467 4.43542C5.10634 5.27123 4.39302 6.33163 3.97331 7.51768C3.82554 7.93528 3.36721 8.15402 2.9496 8.00625C2.532 7.85847 2.31326 7.40014 2.46104 6.98254C2.97114 5.54103 3.8381 4.25223 4.98101 3.2364C6.12392 2.22057 7.50553 1.51082 8.99693 1.17337C10.4883 0.835923 12.0409 0.881777 13.5098 1.30665C14.9746 1.73034 16.3085 2.51715 17.3879 3.59399L21.6323 7.58226C21.9551 7.8856 21.9709 8.3932 21.6675 8.71603C21.3642 9.03885 20.8566 9.05464 20.5338 8.7513L16.2804 4.75463C16.2743 4.74889 16.2683 4.74305 16.2624 4.73713C15.373 3.84728 14.2726 3.19723 13.0641 2.84765ZM0.331823 11.2842C0.635164 10.9614 1.14277 10.9456 1.46559 11.2489L5.71893 15.2456C5.72503 15.2513 5.73105 15.2572 5.73698 15.2631C6.62638 16.1529 7.72671 16.803 8.93529 17.1526C10.1439 17.5022 11.4213 17.5399 12.6484 17.2622C13.8755 16.9846 15.0123 16.4006 15.9527 15.5648C16.893 14.729 17.6063 13.6686 18.026 12.4825C18.1738 12.0649 18.6321 11.8462 19.0497 11.994C19.4674 12.1417 19.6861 12.6001 19.5383 13.0177C19.0282 14.4592 18.1613 15.748 17.0183 16.7638C15.8754 17.7796 14.4938 18.4894 13.0024 18.8268C11.511 19.1643 9.95844 19.1184 8.48955 18.6936C7.02478 18.2699 5.69085 17.4831 4.61148 16.4062L0.367096 12.418C0.0442738 12.1146 0.0284817 11.607 0.331823 11.2842Z" fill="#2C2C2C"/>
</svg>
