<svg width="42" height="37" viewBox="0 0 42 37" fill="none" xmlns="http://www.w3.org/2000/svg">
<path d="M37.9466 15.8389H26.1908M8.18781 5.49387L6.02979 3.34425C4.98985 2.3016 3.59642 1.6873 2.12521 1.62289L1 1.57251M36.3596 26.3351H13.0832L8.1374 5.34273H40.4656L36.3596 26.3351ZM19.4733 33.8923C19.4733 34.588 18.9094 35.1519 18.2137 35.1519C17.5181 35.1519 16.9542 34.588 16.9542 33.8923C16.9542 33.1967 17.5181 32.6328 18.2137 32.6328C18.9094 32.6328 19.4733 33.1967 19.4733 33.8923ZM32.0687 33.8923C32.0687 34.588 31.5048 35.1519 30.8092 35.1519C30.1135 35.1519 29.5496 34.588 29.5496 33.8923C29.5496 33.1967 30.1135 32.6328 30.8092 32.6328C31.5048 32.6328 32.0687 33.1967 32.0687 33.8923Z" stroke="#102D26" stroke-width="2" stroke-linecap="round" stroke-linejoin="round"/>
</svg>
