<svg width="22" height="18" viewBox="0 0 22 18" fill="none" xmlns="http://www.w3.org/2000/svg">
<path fill-rule="evenodd" clip-rule="evenodd" d="M19.25 2.35417H2.75C2.11717 2.35417 1.60417 2.86717 1.60417 3.5V14.5C1.60417 15.1328 2.11717 15.6458 2.75 15.6458H19.25C19.8828 15.6458 20.3958 15.1328 20.3958 14.5V3.5C20.3958 2.86717 19.8828 2.35417 19.25 2.35417ZM2.75 0.75C1.23122 0.75 0 1.98122 0 3.5V14.5C0 16.0188 1.23122 17.25 2.75 17.25H19.25C20.7688 17.25 22 16.0188 22 14.5V3.5C22 1.98122 20.7688 0.75 19.25 0.75H2.75Z" fill="#2C2C2C"/>
<path fill-rule="evenodd" clip-rule="evenodd" d="M2.86458 13.5833C2.86458 13.1404 3.22369 12.7813 3.66667 12.7813H6.41667C6.85965 12.7813 7.21875 13.1404 7.21875 13.5833C7.21875 14.0263 6.85965 14.3854 6.41667 14.3854H3.66667C3.22369 14.3854 2.86458 14.0263 2.86458 13.5833Z" fill="#2C2C2C"/>
<path fill-rule="evenodd" clip-rule="evenodd" d="M2.86458 5.33333C2.86458 4.89036 3.22369 4.53125 3.66667 4.53125H18.3333C18.7763 4.53125 19.1354 4.89036 19.1354 5.33333C19.1354 5.77631 18.7763 6.13542 18.3333 6.13542H3.66667C3.22369 6.13542 2.86458 5.77631 2.86458 5.33333Z" fill="#2C2C2C"/>
</svg>
