<svg width="22" height="20" viewBox="0 0 22 20" fill="none" xmlns="http://www.w3.org/2000/svg">
<path d="M9.16634 9.19775C8.72336 9.19775 8.36426 9.55686 8.36426 9.99984C8.36426 10.4428 8.72336 10.8019 9.16634 10.8019H12.833C13.276 10.8019 13.6351 10.4428 13.6351 9.99984C13.6351 9.55686 13.276 9.19775 12.833 9.19775H9.16634Z" fill="#2C2C2C"/>
<path fill-rule="evenodd" clip-rule="evenodd" d="M0.114258 1.74984C0.114258 1.30686 0.473363 0.947754 0.916341 0.947754H21.083C21.526 0.947754 21.8851 1.30686 21.8851 1.74984V6.33317C21.8851 6.77615 21.526 7.13525 21.083 7.13525H20.0518V18.2498C20.0518 18.6928 19.6927 19.0519 19.2497 19.0519H2.74967C2.3067 19.0519 1.94759 18.6928 1.94759 18.2498V7.13525H0.916341C0.473363 7.13525 0.114258 6.77615 0.114258 6.33317V1.74984ZM18.4476 17.4478V7.13525H3.55176V17.4478H18.4476ZM20.2809 5.53109H1.71842V2.55192H20.2809V5.53109Z" fill="#2C2C2C"/>
</svg>
