<svg width="44" height="34" viewBox="0 0 44 34" fill="none" xmlns="http://www.w3.org/2000/svg">
<path d="M21.7907 23.9832C25.7174 23.9832 28.9007 20.7999 28.9007 16.8732C28.9007 12.9465 25.7174 9.76318 21.7907 9.76318C17.8639 9.76318 14.6807 12.9465 14.6807 16.8732C14.6807 20.7999 17.8639 23.9832 21.7907 23.9832Z" stroke="#3A4651" stroke-width="3" stroke-linecap="round" stroke-linejoin="round"/>
<path d="M1.76074 17.1431C3.00665 12.8532 5.5881 9.07228 9.12997 6.34994C12.6719 3.6276 16.9896 2.10566 21.4557 2.0053C25.9217 1.90494 30.3035 3.23141 33.9641 5.79189C37.6247 8.35238 40.3734 12.0135 41.8107 16.2431" stroke="#3A4651" stroke-width="3" stroke-linecap="round" stroke-linejoin="round"/>
<path d="M1.76074 17.5831C3.14824 21.827 5.85228 25.5182 9.48026 28.1208C13.1082 30.7233 17.4713 32.1019 21.936 32.0562C26.4007 32.0104 30.7346 30.5429 34.3086 27.8666C37.8825 25.1903 40.5104 21.4445 41.8107 17.1731" stroke="#3A4651" stroke-width="3" stroke-linecap="round" stroke-linejoin="round"/>
</svg>
