<svg width="44" height="34" viewBox="0 0 44 34" fill="none" xmlns="http://www.w3.org/2000/svg">
<path d="M28.9009 15.97C28.9457 16.4255 28.9457 16.8844 28.9009 17.34C28.8252 18.2699 28.567 19.1758 28.141 20.0059C27.715 20.836 27.1296 21.5739 26.4182 22.1776C25.7068 22.7813 24.8833 23.2388 23.995 23.524C23.1067 23.8093 22.1708 23.9166 21.241 23.84" stroke="#3A4651" stroke-width="3" stroke-linecap="round" stroke-linejoin="round"/>
<path d="M15.4008 20.0701C14.8345 18.9652 14.5722 17.7297 14.6408 16.49C14.6973 15.3077 15.0486 14.1583 15.6626 13.1462C16.2765 12.1342 17.1338 11.2918 18.1564 10.6955C19.179 10.0993 20.3344 9.76815 21.5175 9.73227C22.7007 9.69638 23.874 9.95687 24.9309 10.49" stroke="#3A4651" stroke-width="3" stroke-linecap="round" stroke-linejoin="round"/>
<path d="M36.4709 7.91992C38.8669 10.2285 40.68 13.0732 41.7609 16.2199" stroke="#3A4651" stroke-width="3" stroke-linecap="round" stroke-linejoin="round"/>
<path d="M1.71094 17.13C2.57271 14.1699 4.07565 11.4358 6.11307 9.12201C8.15048 6.80819 10.6723 4.97136 13.4996 3.74195C16.3269 2.51254 19.3902 1.92072 22.4719 2.00852C25.5536 2.09632 28.5782 2.86159 31.3309 4.24997" stroke="#3A4651" stroke-width="3" stroke-linecap="round" stroke-linejoin="round"/>
<path d="M14.0908 30.5999C16.7831 31.6428 19.6615 32.1193 22.5463 31.9997C25.431 31.88 28.2601 31.1668 30.8568 29.9046C33.4534 28.6424 35.762 26.8583 37.6381 24.6637C39.5143 22.4691 40.9177 19.9113 41.7608 17.1499" stroke="#3A4651" stroke-width="3" stroke-linecap="round" stroke-linejoin="round"/>
<path d="M1.71094 17.5601C2.92828 21.2609 5.15115 24.5502 8.13095 27.0601" stroke="#3A4651" stroke-width="3" stroke-linecap="round" stroke-linejoin="round"/>
<path d="M34.8408 2L6.84082 31" stroke="#3A4651" stroke-width="3" stroke-linecap="round" stroke-linejoin="round"/>
</svg>
