<svg width="20" height="20" viewBox="0 0 20 20" fill="none" xmlns="http://www.w3.org/2000/svg">
<path d="M7.48383 14.9677C9.35799 14.9677 11.067 14.2738 12.3799 13.1357L19.2441 20L20 19.2441L13.1357 12.3799C14.2738 11.067 14.9677 9.35799 14.9677 7.48383C14.9677 3.35062 11.617 0 7.48383 0C3.35062 0 0 3.35062 0 7.48383C0 11.617 3.35062 14.9677 7.48383 14.9677ZM7.48383 1.06912C11.021 1.06912 13.8985 3.94665 13.8985 7.48383C13.8985 11.021 11.021 13.8985 7.48383 13.8985C3.94665 13.8985 1.06912 11.021 1.06912 7.48383C1.06912 3.94665 3.94665 1.06912 7.48383 1.06912Z" fill="black"/>
</svg>
